<?xml version="1.0" encoding="utf-8"?>
<svg version="1.1" id="Layer_1" xmlns="http://www.w3.org/2000/svg" xmlns:xlink="http://www.w3.org/1999/xlink" x="0px" y="0px" viewBox="0 0 841.9 595.3" style="enable-background:new 0 0 841.9 595.3;" xml:space="preserve">
	<style type="text/css">
		.st0{fill:#3B82F6;}
	</style>
	<g>
		<path class="st0" d="M298.6,361.5c-1.3,0-2.3,1-2.3,2.3v16.9c0,17.9,8.7,24.6,23.2,30.7c25.8,10.9,69.6,13.7,113,13.2
		c42.2-0.5,84.7-2.4,111.6-11.4c16.6-5.6,27.7-12.5,27.7-31.3v-70.7c0-1.3-1-2.3-2.3-2.3H554v0h-48.9c-1.3,0-2.3-1-2.3-2.3v-19.1
		c0-1.3-1-2.3-2.3-2.3h-12.4c-1.3,0-2.3,1-2.3,2.3v19.1c0,1.3-1,2.3-2.3,2.3h-38.2c-1.3,0-2.3-1-2.3-2.3v-29.4c0-1.3,1-2.3,2.3-2.3
		h55.8c1.3,0,2.3-1,2.3-2.3v-7c0-1.3-1-2.3-2.3-2.3c-16-0.1-111.5-0.5-115.2,0c-0.1,0-0.2,0-0.3,0l-18.1-0.2c-1.3,0-2.3,1-2.3,2.3
		v7.2c0,1.3,1,2.3,2.3,2.3h55.8c1.3,0,2.3,1,2.3,2.3l0,29.4c0,1.3-1,2.3-2.3,2.3h-38.7c-1.3,0-2.3-1-2.3-2.3l0-19.1
		c0-1.3-1-2.3-2.3-2.3l-12.7,0.2c-1.2,0-2.2,1-2.2,2.3v18.9c0,1.3-1,2.3-2.3,2.3h-46.6c-1.3,0-2.3-1-2.3-2.3v-52.2
		c0-27,121.4-23.2,121.4-23.2S554,228.9,554,256.2v16.3c0,1.3,1,2.3,2.3,2.3h13.2c1.3,0,2.3-1,2.3-2.3v-15.9
		c0-17.9-8.7-24.6-23.2-30.7c-25.8-10.9-70.8-13.1-114.3-12.5c-42.2,0.5-83.5,1.7-110.3,10.8c-16.6,5.6-27.7,12.5-27.7,31.3V325
		c0,1.3,1,2.3,2.3,2.3h15.5H363c1.3,0,2.3,1,2.3,2.3v1c0,10.7,0.2,25.9,0.3,36.2c0.1,7.4,4.2,14.3,10.8,17.6c17.2,8.6,44.1,9,58,9
		c14.6,0,39.8-2.1,56.5-9.4c7.3-3.2,11.9-10.5,11.9-18.4l0-36l0,0c0-1.3,1-2.3,2.3-2.3h46.6c1.3,0,2.3,1,2.3,2.3v53.3
		c0,27-121.4,25.1-121.4,25.1s-118.4,0.3-118.4-27v-17.3c0-1.3-1-2.3-2.3-2.3H298.6z M485.9,330.7c0,11.6-0.1,31.7-0.1,31.7
		c1.3,14.5-37.3,16.8-50.8,16.7c-15.9-0.2-54.4-1.3-52.8-15.9c0,0,0.2-20.9,0.2-32.5l0-1c0-1.3,1-2.3,2.3-2.3h38.8
		c1.3,0,2.3,1,2.3,2.3l0,33.8c0,1.3,1,2.3,2.3,2.3h12.7c1.3,0,2.3-1,2.3-2.3v-33.8c0-1.3,1-2.3,2.3-2.3h38.2c1.3,0,2.3,1,2.3,2.3
		V330.7z" />
		<path class="st0" d="M589.7,418.7c0,2.7-1.7,5.1-4.2,6.1c-10.5,4-25.1,9.6-40.7,13.3c-45.1,10.8-80.8,10.6-110.3,10.2
		c-15.6-0.2-57.9-1.4-111.4-12.5c-15.5-3.2-32.2-8.1-43.5-11.4l-4.2-1.5c-4.2-1.5-8.6,1.7-8.6,6.1v1.2c0,2.8,1.8,5.3,4.5,6.2
		l8.3,2.7c10.4,3.7,25.1,8.4,43.2,12.6c43.5,10.2,77.2,10.4,111.8,10.5c37.7,0.1,69.7,0,111.1-10.1c18-4.4,34.6-11.3,44.8-15.2v0
		l8.2-3.5c2.4-1,3.9-3.4,3.9-6V324.7c0-3.6-2.9-6.5-6.5-6.5l0,0c-3.6,0-6.5,2.9-6.5,6.5C589.6,360.7,589.7,397,589.7,418.7z" />
		<path class="st0" d="M427.7,90.3l-175.1,92c-3.5,1.8-4,6.6-0.9,9.1l13.2,10.9c1.3,1,2,2.6,2,4.3v117.2c0,1.5-0.6,2.9-1.6,3.9
		l-0.7,0.7c-2.2,2.2-2.2,5.6,0,7.8l4.7,4.7c2.2,2.2,5.6,2.2,7.8,0l4.7-4.7c2.2-2.2,2.2-5.6,0-7.8h0c-1-1-1.6-2.4-1.6-3.9V223
		c0-2.3,1.4-4.3,3.5-5.1c10.2-4,23.9-9.9,40.2-13.8c45.2-10.8,80.8-10.6,110.3-10.2c15.6,0.2,57.9,1.4,111.4,12.5
		c15.9,3.3,29.5,8.4,40,11.7c2.3,0.7,3.8,2.8,3.8,5.2c0,8.4,0,27.3,0,37.4c0,3,2.5,5.5,5.5,5.5l2.1,0c3,0,5.5-2.5,5.5-5.5v-55.4
		c0-1.4,0.6-2.8,1.6-3.9l1.9-1.9c0.2-0.2,0.4-0.4,0.6-0.5l9.4-7.2c3.2-2.4,2.8-7.4-0.8-9.3L441.1,90.4
		C436.9,88.1,431.9,88.1,427.7,90.3z M591.5,200.7c-1.5,1.4-3.6,1.9-5.6,1.2c-10.1-3.5-23.7-7.7-40-11.5
		c-43.5-10.1-75.7-12.2-111.8-12.4c-37.7-0.2-69.7,1.9-111.1,12c-16.2,3.9-29.6,8.4-39.7,12.1c-2.1,0.8-4.5,0.2-6-1.4l-8.1-8.8
		c-2.5-2.7-1.7-7.1,1.7-8.7L432,105.1c1.5-0.7,3.3-0.7,4.8,0l162.5,77.9c3.5,1.7,4.2,6.3,1.4,9L591.5,200.7z" />
	</g>
</svg>
