<svg xmlns="http://www.w3.org/2000/svg" width="25" height="25" viewBox="0 0 25 25" fill="none">
	<mask id="mask0_735_42" style="mask-type:alpha" maskUnits="userSpaceOnUse" x="0" y="0" width="25" height="25">
		<rect x="0.893555" y="0.66217" width="24" height="24" fill="#2563eb" />
	</mask>
	<g mask="url(#mask0_735_42)">
		<path d="M5.9513 21.1622C5.44614 21.1622 5.01855 20.9872 4.66855 20.6372C4.31855 20.2872 4.14355 19.8596 4.14355 19.3544V5.96992C4.14355 5.46475 4.31855 5.03717 4.66855 4.68717C5.01855 4.33717 5.44614 4.16217 5.9513 4.16217H14.3551C14.5676 4.16217 14.7457 4.23409 14.8896 4.37792C15.0332 4.52175 15.1051 4.69992 15.1051 4.91242C15.1051 5.12509 15.0332 5.30317 14.8896 5.44667C14.7457 5.59034 14.5676 5.66217 14.3551 5.66217H5.9513C5.8743 5.66217 5.8038 5.69425 5.7398 5.75842C5.67564 5.82242 5.64355 5.89292 5.64355 5.96992V19.3544C5.64355 19.4314 5.67564 19.5019 5.7398 19.5659C5.8038 19.6301 5.8743 19.6622 5.9513 19.6622H19.3358C19.4128 19.6622 19.4833 19.6301 19.5473 19.5659C19.6115 19.5019 19.6436 19.4314 19.6436 19.3544V10.9507C19.6436 10.7382 19.7155 10.56 19.8593 10.4162C20.0031 10.2725 20.1813 10.2007 20.3938 10.2007C20.6065 10.2007 20.7846 10.2725 20.9281 10.4162C21.0717 10.56 21.1436 10.7382 21.1436 10.9507V19.3544C21.1436 19.8596 20.9686 20.2872 20.6186 20.6372C20.2686 20.9872 19.841 21.1622 19.3358 21.1622H5.9513ZM9.64355 17.4122C9.43105 17.4122 9.25289 17.3403 9.10905 17.1964C8.96539 17.0526 8.89355 16.8744 8.89355 16.6619C8.89355 16.4493 8.96539 16.2712 9.10905 16.1277C9.25289 15.984 9.43105 15.9122 9.64355 15.9122H15.6436C15.8561 15.9122 16.0341 15.9841 16.1778 16.1279C16.3216 16.2718 16.3936 16.4499 16.3936 16.6624C16.3936 16.8751 16.3216 17.0532 16.1778 17.1967C16.0341 17.3403 15.8561 17.4122 15.6436 17.4122H9.64355ZM9.64355 14.4122C9.43105 14.4122 9.25289 14.3403 9.10905 14.1964C8.96539 14.0526 8.89355 13.8744 8.89355 13.6619C8.89355 13.4493 8.96539 13.2712 9.10905 13.1277C9.25289 12.984 9.43105 12.9122 9.64355 12.9122H15.6436C15.8561 12.9122 16.0341 12.9841 16.1778 13.1279C16.3216 13.2718 16.3936 13.4499 16.3936 13.6624C16.3936 13.8751 16.3216 14.0532 16.1778 14.1967C16.0341 14.3403 15.8561 14.4122 15.6436 14.4122H9.64355ZM9.64355 11.4122C9.43105 11.4122 9.25289 11.3403 9.10905 11.1964C8.96539 11.0526 8.89355 10.8744 8.89355 10.6619C8.89355 10.4493 8.96539 10.2712 9.10905 10.1277C9.25289 9.984 9.43105 9.91217 9.64355 9.91217H15.6436C15.8561 9.91217 16.0341 9.98409 16.1778 10.1279C16.3216 10.2718 16.3936 10.4499 16.3936 10.6624C16.3936 10.8751 16.3216 11.0532 16.1778 11.1967C16.0341 11.3403 15.8561 11.4122 15.6436 11.4122H9.64355ZM18.8933 9.16217C18.6806 9.16217 18.5026 9.09025 18.3591 8.94642C18.2154 8.80275 18.1436 8.62467 18.1436 8.41217V7.16217H16.8936C16.6811 7.16217 16.503 7.09025 16.3593 6.94642C16.2155 6.80259 16.1436 6.62442 16.1436 6.41192C16.1436 6.19925 16.2155 6.02117 16.3593 5.87767C16.503 5.734 16.6811 5.66217 16.8936 5.66217H18.1436V4.41217C18.1436 4.19967 18.2155 4.0215 18.3593 3.87767C18.5031 3.734 18.6813 3.66217 18.8938 3.66217C19.1065 3.66217 19.2846 3.734 19.4281 3.87767C19.5717 4.0215 19.6436 4.19967 19.6436 4.41217V5.66217H20.8936C21.1061 5.66217 21.2841 5.73409 21.4278 5.87792C21.5716 6.02175 21.6436 6.19992 21.6436 6.41242C21.6436 6.62509 21.5716 6.80317 21.4278 6.94667C21.2841 7.09034 21.1061 7.16217 20.8936 7.16217H19.6436V8.41217C19.6436 8.62467 19.5716 8.80275 19.4278 8.94642C19.284 9.09025 19.1058 9.16217 18.8933 9.16217Z" fill="#2563eb" />
	</g>
</svg>
