<svg xmlns="http://www.w3.org/2000/svg" width="24" height="24" viewBox="0 0 24 24" fill="none">
	<mask id="mask0_80_74" style="mask-type:alpha" maskUnits="userSpaceOnUse" x="0" y="0" width="24" height="24">
		<rect width="24" height="24" fill="#2563eb" />
	</mask>
	<g mask="url(#mask0_80_74)">
		<path d="M20.5878 12.6282H9.2423C9.064 12.6282 8.91472 12.5678 8.79447 12.4469C8.67424 12.3261 8.61413 12.1761 8.61413 11.997C8.61413 11.8178 8.67424 11.6688 8.79447 11.55C8.91472 11.4312 9.064 11.3718 9.2423 11.3718H20.5878L18.8827 9.66665C18.7587 9.54272 18.696 9.39689 18.6945 9.22917C18.693 9.06144 18.7545 8.9124 18.8789 8.78205C19.0117 8.65172 19.1628 8.58677 19.3322 8.5872C19.5016 8.58762 19.6517 8.65086 19.7826 8.77693L22.4679 11.4519C22.6239 11.6087 22.7018 11.7916 22.7018 12.0006C22.7018 12.2096 22.6239 12.3921 22.4679 12.5481L19.7826 15.2333C19.6592 15.3573 19.5127 15.4183 19.343 15.4163C19.1733 15.4144 19.0231 15.3483 18.8925 15.2179C18.7701 15.0876 18.7081 14.9385 18.7064 14.7705C18.7047 14.6026 18.769 14.4534 18.8993 14.3231L20.5878 12.6282ZM14.9583 8.60257V5.06412C14.9583 4.97437 14.9295 4.90065 14.8718 4.84295C14.8141 4.78525 14.7404 4.7564 14.6506 4.7564H5.0641C4.97435 4.7564 4.90062 4.78525 4.84292 4.84295C4.78522 4.90065 4.75637 4.97437 4.75637 5.06412V18.9359C4.75637 19.0256 4.78522 19.0993 4.84292 19.157C4.90062 19.2147 4.97435 19.2436 5.0641 19.2436H14.6506C14.7404 19.2436 14.8141 19.2147 14.8718 19.157C14.9295 19.0993 14.9583 19.0256 14.9583 18.9359V15.3974C14.9583 15.2191 15.0187 15.0698 15.1395 14.9496C15.2604 14.8294 15.4104 14.7692 15.5895 14.7692C15.7687 14.7692 15.9177 14.8294 16.0365 14.9496C16.1553 15.0698 16.2147 15.2191 16.2147 15.3974V18.9359C16.2147 19.3643 16.0611 19.7321 15.7539 20.0392C15.4468 20.3464 15.079 20.5 14.6506 20.5H5.0641C4.63568 20.5 4.2679 20.3464 3.96075 20.0392C3.65358 19.7321 3.5 19.3643 3.5 18.9359V5.06412C3.5 4.63571 3.65358 4.26793 3.96075 3.96078C4.2679 3.65361 4.63568 3.50002 5.0641 3.50002H14.6506C15.079 3.50002 15.4468 3.65361 15.7539 3.96078C16.0611 4.26793 16.2147 4.63571 16.2147 5.06412V8.60257C16.2147 8.78087 16.1543 8.93015 16.0334 9.0504C15.9126 9.17063 15.7626 9.23075 15.5835 9.23075C15.4043 9.23075 15.2553 9.17063 15.1365 9.0504C15.0177 8.93015 14.9583 8.78087 14.9583 8.60257Z" fill="#2563eb" />
	</g>
</svg>
