<svg width="25" height="25" viewBox="0 0 25 25" fill="none" xmlns="http://www.w3.org/2000/svg">
	<mask id="mask0_805_24" style="mask-type:alpha" maskUnits="userSpaceOnUse" x="0" y="0" width="25" height="25">
		<rect x="0.0446777" y="0.668457" width="24" height="24" fill="#D9D9D9" />
	</mask>
	<g mask="url(#mask0_805_24)">
		<path d="M1.41018 18.4568C1.16501 18.4568 0.959428 18.3739 0.793428 18.2081C0.627594 18.0421 0.544678 17.8365 0.544678 17.5913V17.2376C0.544678 16.5722 0.892094 16.0257 1.58693 15.5981C2.28193 15.1706 3.18776 14.9568 4.30443 14.9568C4.48893 14.9568 4.67476 14.9626 4.86193 14.9741C5.04909 14.9856 5.23759 15.008 5.42743 15.0413C5.23259 15.353 5.08801 15.6764 4.99368 16.0116C4.89951 16.3469 4.85243 16.6908 4.85243 17.0433V18.4568H1.41018ZM7.45243 18.4568C7.19209 18.4568 6.97576 18.3702 6.80343 18.1968C6.63093 18.0237 6.54468 17.809 6.54468 17.5528V17.0818C6.54468 16.6137 6.67609 16.1857 6.93893 15.7981C7.20176 15.4102 7.58059 15.0722 8.07543 14.7838C8.57026 14.4953 9.15493 14.279 9.82943 14.1348C10.5038 13.9905 11.2409 13.9183 12.0409 13.9183C12.8563 13.9183 13.6011 13.9905 14.2754 14.1348C14.9498 14.279 15.5343 14.4953 16.0292 14.7838C16.5242 15.0722 16.9005 15.4102 17.1582 15.7981C17.4158 16.1857 17.5447 16.6137 17.5447 17.0818V17.5528C17.5447 17.809 17.458 18.0237 17.2847 18.1968C17.1115 18.3702 16.8968 18.4568 16.6407 18.4568H7.45243ZM19.2369 18.4568V17.0446C19.2369 16.6681 19.1924 16.3138 19.1034 15.9818C19.0143 15.6498 18.8806 15.3363 18.7024 15.0413C18.8986 15.008 19.0861 14.9856 19.2649 14.9741C19.4438 14.9626 19.6203 14.9568 19.7947 14.9568C20.9113 14.9568 21.8155 15.1681 22.5072 15.5906C23.1988 16.0129 23.5447 16.5619 23.5447 17.2376V17.5913C23.5447 17.8365 23.4618 18.0421 23.2959 18.2081C23.1299 18.3739 22.9243 18.4568 22.6792 18.4568H19.2369ZM8.12168 16.9568H15.9832V16.8511C15.8807 16.4472 15.455 16.1075 14.7062 15.8318C13.9575 15.5562 13.0703 15.4183 12.0447 15.4183C11.019 15.4183 10.1318 15.5562 9.38318 15.8318C8.63434 16.1075 8.21384 16.4472 8.12168 16.8511V16.9568ZM4.30168 13.9856C3.83034 13.9856 3.42768 13.818 3.09368 13.4828C2.75968 13.1477 2.59268 12.7447 2.59268 12.2741C2.59268 11.7972 2.76034 11.3944 3.09568 11.0656C3.43084 10.7367 3.83376 10.5723 4.30443 10.5723C4.78126 10.5723 5.18568 10.7367 5.51768 11.0656C5.84984 11.3944 6.01593 11.7982 6.01593 12.2771C6.01593 12.7417 5.85159 13.1427 5.52293 13.4798C5.19443 13.817 4.78734 13.9856 4.30168 13.9856ZM19.7947 13.9856C19.328 13.9856 18.9261 13.817 18.5889 13.4798C18.2518 13.1427 18.0832 12.7417 18.0832 12.2771C18.0832 11.7982 18.2518 11.3944 18.5889 11.0656C18.9261 10.7367 19.3286 10.5723 19.7964 10.5723C20.2786 10.5723 20.6841 10.7367 21.0129 11.0656C21.3418 11.3944 21.5062 11.7972 21.5062 12.2741C21.5062 12.7447 21.3422 13.1477 21.0142 13.4828C20.6862 13.818 20.2797 13.9856 19.7947 13.9856ZM12.0482 13.1683C11.3278 13.1683 10.7145 12.9159 10.2082 12.4111C9.70185 11.9064 9.44868 11.2935 9.44868 10.5723C9.44868 9.83666 9.70101 9.22007 10.2057 8.72257C10.7105 8.22491 11.3235 7.97607 12.0447 7.97607C12.7802 7.97607 13.3968 8.22457 13.8944 8.72157C14.3919 9.21841 14.6407 9.83416 14.6407 10.5688C14.6407 11.289 14.3923 11.9023 13.8954 12.4088C13.3984 12.9152 12.7827 13.1683 12.0482 13.1683ZM12.0494 11.6683C12.3553 11.6683 12.6136 11.5613 12.8244 11.3473C13.0354 11.1332 13.1409 10.8732 13.1409 10.5673C13.1409 10.2617 13.0358 10.0033 12.8257 9.79233C12.6155 9.58149 12.3552 9.47607 12.0447 9.47607C11.7422 9.47607 11.4838 9.58116 11.2697 9.79132C11.0555 10.0013 10.9484 10.2617 10.9484 10.5723C10.9484 10.8748 11.0555 11.1332 11.2697 11.3473C11.4838 11.5613 11.7438 11.6683 12.0494 11.6683Z" fill="#2563EB" />
	</g>
</svg>
