<svg xmlns="http://www.w3.org/2000/svg" width="25" height="25" viewBox="0 0 25 25" fill="none">
    <mask id="mask0_811_36" style="mask-type:alpha" maskUnits="userSpaceOnUse" x="0" y="0" width="25" height="25">
        <rect x="0.0446777" y="0.668457" width="24" height="24" fill="#D9D9D9" />
    </mask>
    <g mask="url(#mask0_811_36)">
        <path
            d="M15.3447 9.57046L14.2312 8.46646C14.144 8.37929 14.0418 8.33671 13.9244 8.33871C13.8071 8.34054 13.7017 8.38829 13.6082 8.48196C13.5145 8.57546 13.4677 8.67929 13.4677 8.79346C13.4677 8.90762 13.5145 9.01146 13.6082 9.10496L14.7119 10.1992C14.8928 10.38 15.1037 10.4705 15.3447 10.4705C15.5857 10.4705 15.7966 10.38 15.9774 10.1992L18.4812 7.67996C18.5683 7.59279 18.6135 7.49054 18.6167 7.37321C18.62 7.25587 18.5748 7.15046 18.4812 7.05696C18.3877 6.96329 18.2838 6.91646 18.1697 6.91646C18.0555 6.91646 17.9517 6.96329 17.8582 7.05696L15.3447 9.57046ZM4.29468 20.4185C4.08218 20.4185 3.90409 20.3465 3.76043 20.2027C3.61659 20.0589 3.54468 19.8807 3.54468 19.6682C3.54468 19.4555 3.61659 19.2775 3.76043 19.134C3.90409 18.9903 4.08218 18.9185 4.29468 18.9185H14.2947C14.5072 18.9185 14.6853 18.9904 14.8292 19.1342C14.9728 19.278 15.0447 19.4562 15.0447 19.6687C15.0447 19.8814 14.9728 20.0595 14.8292 20.203C14.6853 20.3466 14.5072 20.4185 14.2947 20.4185H4.29468ZM16.0462 13.4185C14.7323 13.4185 13.612 12.9555 12.6852 12.0295C11.7582 11.1035 11.2947 9.98362 11.2947 8.66996C11.2947 7.35612 11.7577 6.23579 12.6837 5.30896C13.6097 4.38196 14.7295 3.91846 16.0432 3.91846C17.357 3.91846 18.4773 4.38146 19.4042 5.30746C20.3312 6.23346 20.7947 7.35329 20.7947 8.66696C20.7947 9.98079 20.3317 11.1011 19.4057 12.028C18.4797 12.955 17.3598 13.4185 16.0462 13.4185ZM4.29468 12.4185C4.08218 12.4185 3.90409 12.3465 3.76043 12.2027C3.61659 12.0589 3.54468 11.8807 3.54468 11.6682C3.54468 11.4555 3.61659 11.2775 3.76043 11.134C3.90409 10.9903 4.08218 10.9185 4.29468 10.9185H8.91193C9.12443 10.9185 9.30259 10.99 9.44643 11.133C9.59009 11.276 9.66193 11.4531 9.66193 11.6645C9.66193 11.8633 9.59009 12.0386 9.44643 12.1905C9.30259 12.3425 9.12443 12.4185 8.91193 12.4185H4.29468ZM4.29468 16.4185C4.08218 16.4185 3.90409 16.3465 3.76043 16.2027C3.61659 16.0589 3.54468 15.8807 3.54468 15.6682C3.54468 15.4555 3.61659 15.2775 3.76043 15.134C3.90409 14.9903 4.08218 14.9185 4.29468 14.9185H12.5467C12.7592 14.9185 12.9373 14.99 13.0809 15.133C13.2248 15.276 13.2967 15.4531 13.2967 15.6645C13.2967 15.8633 13.229 16.0386 13.0937 16.1905C12.9585 16.3425 12.7762 16.4185 12.5467 16.4185H4.29468Z"
            fill="#2563EB" />
    </g>
</svg>
